<?xml version="1.0" standalone="no"?>
<!DOCTYPE svg PUBLIC "-//W3C//DTD SVG 20010904//EN"
 "http://www.w3.org/TR/2001/REC-SVG-20010904/DTD/svg10.dtd">
<svg version="1.0" xmlns="http://www.w3.org/2000/svg"
 width="900.000000pt" height="900.000000pt" viewBox="0 0 900.000000 900.000000"
 preserveAspectRatio="xMidYMid meet">

<g transform="translate(0.000000,900.000000) scale(0.100000,-0.100000)"
fill="#000000" stroke="none">
<path d="M4325 6665 c-165 -44 -294 -125 -430 -266 -348 -363 -497 -994 -375
-1589 57 -276 194 -558 360 -742 l62 -68 -26 -10 c-44 -16 -22 -40 36 -40 43
0 61 -7 117 -44 273 -180 597 -181 864 -1 53 36 76 44 118 47 59 3 75 22 33
38 l-28 11 56 57 c174 177 320 477 377 775 96 499 6 1019 -242 1395 -82 123
-157 205 -259 282 -166 126 -297 170 -492 169 -68 0 -143 -6 -171 -14z m365
-71 c41 -13 104 -40 139 -61 84 -49 234 -197 298 -293 195 -292 293 -673 280
-1082 -3 -92 -8 -172 -12 -178 -4 -6 -19 8 -36 34 -58 87 -200 131 -294 92
-50 -21 -99 -61 -115 -93 -8 -16 -25 -41 -37 -56 -13 -16 -23 -36 -23 -46 0
-27 96 -147 129 -160 62 -26 152 -12 200 32 30 27 101 135 101 154 0 22 -30
15 -59 -14 l-28 -28 -16 38 c-19 46 -33 47 -53 4 l-16 -33 -28 28 c-34 34 -58
38 -36 6 21 -30 20 -71 -1 -91 -27 -24 -65 -30 -87 -14 -18 13 -18 15 -3 38
22 31 21 51 -4 83 l-21 27 39 38 c135 135 355 15 356 -194 1 -151 -110 -266
-258 -268 -111 -2 -198 60 -262 187 -40 80 -59 161 -68 303 -10 146 -6 156 65
182 102 38 148 117 103 181 -24 35 -49 54 -113 89 l-56 30 -12 103 c-23 185
-75 377 -137 498 -28 55 -31 70 -13 70 23 0 58 43 58 72 0 29 -38 78 -61 78
-20 0 23 42 59 57 19 8 43 11 55 7 28 -8 67 -44 67 -61 0 -7 5 -13 10 -13 32
0 -10 98 -49 113 -21 8 -31 19 -33 37 -4 31 -38 39 -73 16 -22 -15 -27 -14
-60 5 -50 30 -125 30 -165 1 -35 -26 -43 -27 -60 -7 -25 30 -80 12 -80 -26 0
-10 -9 -20 -20 -24 -30 -9 -60 -54 -60 -89 l0 -31 19 31 c28 46 73 59 126 35
45 -20 66 -42 47 -49 -6 -2 -21 -11 -33 -21 -43 -34 -19 -131 33 -131 10 0 18
-2 18 -4 0 -2 -18 -42 -40 -88 -67 -141 -112 -324 -131 -530 -15 -159 -10
-149 -56 -136 -62 17 -123 5 -155 -31 -53 -59 -30 -134 53 -176 27 -14 68 -42
90 -62 l40 -36 -3 53 c-3 59 0 55 -93 97 -30 14 -41 25 -43 45 -5 41 27 54 94
39 53 -12 53 -12 60 -58 11 -76 -2 -391 -20 -456 -52 -189 -162 -300 -301
-301 -234 -3 -353 287 -186 454 77 76 164 88 249 33 54 -36 71 -67 49 -91 -21
-23 -22 -65 -2 -82 22 -18 19 -29 -12 -41 -21 -8 -35 -7 -60 5 -41 19 -52 56
-28 92 9 14 15 27 13 29 -9 8 -51 -18 -55 -35 -6 -22 -23 -27 -23 -7 0 7 -7
23 -17 36 l-16 24 -19 -23 c-10 -12 -18 -31 -18 -42 0 -18 -4 -17 -35 11 -32
28 -65 41 -65 26 0 -12 34 -71 64 -113 79 -112 224 -127 298 -32 12 17 36 45
51 61 32 35 31 74 -3 98 -11 7 -20 19 -20 25 0 23 -70 94 -113 115 -107 52
-260 5 -321 -98 l-21 -36 -7 40 c-13 66 -12 363 1 470 63 512 296 923 617
1083 57 29 141 55 209 65 57 9 180 -5 255 -29z m-142 -116 c19 -19 14 -55 -14
-98 -25 -38 -28 -39 -45 -24 -10 9 -25 31 -34 51 -15 31 -15 36 -1 59 18 27
72 34 94 12z m-103 -178 c16 -18 17 -23 5 -45 -23 -43 -80 -27 -80 22 0 21 22
42 46 43 6 0 19 -9 29 -20z m177 3 c23 -21 23 -36 -1 -57 -24 -22 -49 -18 -67
9 -12 18 -11 24 2 43 18 26 41 28 66 5z m-42 -263 c68 -184 103 -373 116 -634
l7 -129 -62 6 c-35 3 -64 7 -66 9 -2 1 -7 60 -12 130 -7 104 -6 130 6 148 13
20 13 26 -2 52 -20 34 -23 138 -6 155 9 9 4 19 -19 42 -36 36 -47 38 -64 11
-7 -11 -18 -20 -25 -20 -15 0 -17 -36 -3 -45 15 -9 12 -96 -5 -129 -18 -33
-19 -62 -4 -72 7 -4 8 -37 4 -103 -4 -53 -9 -99 -11 -102 -2 -4 -30 4 -61 16
-71 29 -71 30 -48 234 22 204 79 412 151 554 l26 51 25 -47 c13 -26 37 -83 53
-127z m282 -657 c25 -27 19 -47 -24 -73 -54 -33 -58 -28 -58 56 l0 75 31 -18
c16 -10 39 -28 51 -40z m-469 -97 c22 -10 37 -23 37 -34 0 -55 -45 -395 -65
-497 -55 -274 -167 -542 -275 -656 l-60 -64 -54 57 c-29 31 -80 96 -112 145
-57 86 -151 279 -141 289 2 3 24 -5 48 -18 33 -17 65 -24 127 -27 77 -3 88 -1
147 28 75 37 128 93 178 189 68 129 79 183 84 414 6 233 -4 212 86 174z m259
-82 l45 -6 1 -130 c2 -158 19 -234 78 -357 79 -163 173 -231 319 -231 64 0 90
5 134 25 30 14 55 24 57 22 2 -1 -17 -47 -41 -101 -48 -105 -147 -260 -218
-340 -44 -48 -44 -49 -70 -32 -111 73 -254 389 -317 700 -19 91 -60 394 -60
438 0 20 6 21 72 12z m-125 -250 c10 -80 53 -309 80 -431 5 -23 4 -23 -107
-23 -102 0 -112 2 -106 17 14 35 75 360 81 428 8 95 14 117 28 112 7 -2 17
-44 24 -103z m162 -700 c52 -159 54 -166 39 -197 -15 -32 -36 -47 -90 -67 -16
-5 -28 -16 -28 -25 0 -13 19 -15 120 -15 66 0 120 -4 120 -9 0 -11 -115 -67
-177 -87 -80 -25 -209 -29 -295 -10 -75 17 -210 74 -222 95 -5 8 29 11 113 11
111 0 121 2 121 18 0 13 -12 22 -39 31 -22 6 -50 24 -61 39 -29 36 -24 74 30
232 23 69 44 131 46 138 2 9 38 12 136 12 l133 0 54 -166z"/>
<path d="M1376 3248 c-20 -57 -80 -229 -134 -383 l-98 -280 -47 -3 c-26 -2
-47 -7 -47 -13 0 -5 50 -9 116 -9 74 0 113 4 109 10 -3 6 -28 10 -56 10 -33 0
-49 4 -48 13 0 6 17 59 38 117 l38 105 118 0 118 0 48 -115 47 -115 -54 -3
c-30 -2 -54 -7 -54 -12 0 -6 77 -10 190 -10 120 0 190 4 190 10 0 6 -22 10
-49 10 l-48 0 -55 128 c-31 70 -104 240 -163 377 -60 138 -111 254 -115 258
-4 5 -24 -38 -44 -95z m40 -276 l53 -127 -101 -3 c-55 -1 -102 -1 -105 1 -2 2
18 63 43 136 26 72 49 129 52 126 4 -3 30 -63 58 -133z"/>
<path d="M2875 3300 c3 -5 24 -10 46 -10 l39 0 0 -355 0 -355 -39 0 c-22 0
-43 -4 -46 -10 -4 -7 50 -10 154 -10 101 0 161 4 161 10 0 6 -20 10 -45 10
l-45 0 0 365 0 365 -116 0 c-74 0 -113 -4 -109 -10z"/>
<path d="M5270 3300 c0 -5 25 -10 55 -10 l55 0 0 -355 0 -355 -49 0 c-28 0
-53 -4 -56 -10 -4 -7 100 -10 304 -10 l310 0 3 136 c2 75 0 138 -4 140 -3 2
-11 -19 -17 -46 -15 -70 -44 -123 -86 -158 -47 -38 -96 -52 -184 -52 l-71 0 0
175 c0 200 1 201 74 165 33 -16 50 -32 65 -64 12 -23 21 -50 21 -60 0 -9 5
-14 10 -11 12 7 14 311 2 319 -5 3 -13 -14 -19 -37 -15 -55 -60 -97 -111 -104
l-40 -5 -1 166 -2 166 71 0 c72 0 128 -16 163 -48 27 -24 67 -106 67 -136 0
-14 5 -28 10 -31 6 -4 10 37 10 114 l0 121 -290 0 c-187 0 -290 -4 -290 -10z"/>
<path d="M6530 3267 c0 -23 -39 -56 -80 -67 l-40 -11 0 -59 0 -60 -45 0 c-25
0 -45 -4 -45 -10 0 -5 20 -10 44 -10 l44 0 4 -207 c4 -223 10 -252 60 -287 52
-37 157 -10 171 44 7 26 -10 36 -18 10 -9 -28 -42 -45 -61 -29 -11 9 -14 54
-14 240 l0 229 44 0 c25 0 48 5 51 10 4 6 -13 10 -44 10 l-51 0 0 105 c0 63
-4 105 -10 105 -5 0 -10 -6 -10 -13z"/>
<path d="M7340 3267 c0 -23 -39 -56 -80 -67 l-40 -11 0 -59 0 -60 -45 0 c-25
0 -45 -4 -45 -10 0 -5 20 -10 44 -10 l44 0 3 -207 c4 -188 6 -211 25 -243 25
-43 56 -60 111 -60 30 0 49 7 67 23 27 24 44 67 27 67 -6 0 -11 -6 -11 -13 0
-8 -9 -22 -19 -31 -15 -14 -24 -15 -40 -6 -20 10 -21 18 -21 240 l0 230 50 0
c28 0 50 5 50 10 0 6 -22 10 -50 10 l-50 0 0 105 c0 63 -4 105 -10 105 -5 0
-10 -6 -10 -13z"/>
<path d="M2195 3196 c-13 -14 -29 -44 -35 -68 l-11 -43 -77 0 c-91 0 -140 -20
-180 -73 -37 -48 -38 -125 -3 -173 24 -32 24 -32 3 -48 -26 -21 -52 -73 -52
-106 0 -38 24 -90 51 -110 19 -13 21 -18 9 -23 -8 -3 -27 -18 -42 -33 -41 -40
-39 -100 3 -140 81 -75 322 -80 413 -8 44 34 69 95 63 152 -5 59 -30 94 -88
127 -39 22 -59 25 -185 30 -150 5 -174 13 -174 55 0 12 9 30 20 40 17 15 24
16 49 5 116 -47 243 -17 295 72 38 64 12 165 -51 199 -17 9 -23 21 -23 45 0
45 13 49 39 14 56 -77 160 10 105 88 -22 32 -96 31 -129 -2z m-74 -152 c20
-22 24 -38 28 -105 3 -87 -8 -130 -43 -154 -30 -22 -54 -18 -86 13 -35 35 -47
107 -30 186 18 86 80 114 131 60z m61 -505 c38 -10 68 -48 68 -84 0 -64 -80
-116 -176 -116 -72 0 -118 16 -149 52 -39 47 -29 124 19 147 28 14 191 15 238
1z"/>
<path d="M6259 3080 l-16 -24 -57 18 c-94 30 -158 12 -210 -58 -16 -21 -21
-42 -21 -89 0 -100 42 -142 179 -181 65 -19 116 -61 116 -96 0 -29 -26 -76
-45 -84 -84 -32 -204 49 -230 157 -15 57 -25 23 -25 -83 0 -102 10 -138 25
-90 8 25 47 27 98 5 46 -19 120 -19 155 -1 93 49 126 170 70 262 -21 36 -76
65 -158 84 -98 23 -139 92 -85 145 53 54 149 19 195 -71 l25 -49 3 48 c2 26 2
66 0 89 l-3 42 -16 -24z"/>
<path d="M2490 3079 c-60 -18 -110 -79 -110 -134 0 -33 41 -75 73 -75 63 0
100 76 57 115 -43 39 -16 85 49 85 43 0 60 -9 76 -41 16 -29 20 -136 7 -155
-11 -17 -63 -41 -107 -48 -64 -11 -143 -54 -160 -86 -8 -16 -15 -49 -15 -73 0
-78 58 -127 150 -127 58 0 99 18 130 57 18 22 24 25 28 13 3 -8 19 -27 35 -42
41 -39 113 -40 151 -2 24 25 38 72 16 59 -5 -3 -10 -13 -10 -20 0 -8 -9 -19
-21 -25 -42 -23 -47 -3 -51 198 -3 214 -11 238 -89 281 -48 27 -152 37 -209
20z m155 -426 c-7 -30 -51 -80 -76 -86 -14 -4 -29 2 -45 18 -20 20 -24 34 -24
80 0 87 19 120 87 152 l58 28 3 -85 c2 -47 0 -95 -3 -107z"/>
<path d="M3339 3081 c-69 -23 -109 -72 -109 -135 0 -63 72 -97 121 -58 29 25
30 74 1 105 -27 28 -27 39 -4 60 27 25 86 22 117 -6 23 -19 28 -33 32 -89 5
-60 3 -68 -18 -90 -16 -15 -56 -32 -114 -47 -104 -28 -147 -61 -159 -124 -10
-54 20 -118 67 -140 70 -34 179 -14 214 39 l15 23 38 -40 c38 -40 39 -41 92
-34 29 4 131 9 226 11 99 3 172 9 172 14 0 6 -23 10 -51 10 l-51 0 4 198 c3
177 5 201 24 232 25 43 68 70 85 53 9 -9 6 -18 -10 -39 -26 -34 -27 -54 0 -88
16 -20 29 -26 58 -26 60 0 92 51 71 115 -23 70 -130 87 -189 31 -33 -31 -41
-32 -41 -6 0 19 -7 20 -110 20 -67 0 -110 -4 -110 -10 0 -5 20 -10 45 -10 l45
0 0 -235 0 -235 -41 0 c-39 0 -41 1 -35 25 4 14 2 25 -4 25 -5 0 -10 -6 -10
-13 0 -14 -31 -47 -43 -47 -3 0 -13 7 -21 16 -13 13 -16 45 -16 189 0 99 -5
186 -11 202 -13 35 -46 71 -83 90 -33 17 -159 26 -197 14z m156 -409 c-12 -78
-85 -132 -124 -93 -17 17 -21 34 -21 95 0 89 16 113 95 150 l50 23 3 -66 c2
-36 0 -85 -3 -109z"/>
<path d="M4346 3076 c-62 -23 -109 -67 -143 -136 -27 -51 -33 -75 -33 -124 0
-153 116 -276 260 -276 73 0 114 16 169 65 141 128 113 372 -53 457 -52 26
-148 33 -200 14z m146 -33 c37 -39 48 -91 48 -226 0 -189 -28 -257 -108 -257
-81 0 -111 70 -112 256 0 175 34 254 110 254 27 0 43 -7 62 -27z"/>
<path d="M6793 3079 c-18 -5 -49 -25 -68 -45 -29 -29 -35 -42 -35 -79 0 -36 5
-47 27 -65 30 -24 76 -21 102 5 22 21 18 72 -7 96 -27 24 -28 41 -4 62 27 25
86 22 117 -6 23 -19 28 -33 32 -89 5 -60 3 -68 -18 -90 -16 -15 -55 -32 -112
-47 -52 -14 -100 -33 -117 -47 -51 -44 -61 -122 -23 -180 47 -72 212 -70 260
2 l15 23 37 -39 c33 -35 43 -40 84 -40 34 0 53 6 71 23 27 24 44 67 27 67 -6
0 -11 -6 -11 -13 0 -14 -31 -47 -43 -47 -3 0 -13 7 -21 16 -13 13 -16 45 -16
192 0 203 -7 227 -77 276 -35 24 -53 29 -115 32 -40 2 -88 -1 -105 -7z m167
-306 c0 -99 -9 -138 -39 -172 -36 -41 -65 -47 -92 -20 -19 19 -21 30 -17 99 4
89 16 109 82 140 64 29 66 28 66 -47z"/>
<path d="M7646 3076 c-130 -48 -204 -206 -162 -347 55 -191 301 -255 417 -109
28 36 48 90 33 90 -5 -1 -20 -24 -34 -53 -58 -120 -210 -132 -256 -20 -8 18
-17 67 -21 108 l-6 75 168 0 168 0 -6 57 c-8 74 -43 141 -94 176 -50 36 -145
46 -207 23z m131 -56 c12 -25 25 -75 29 -112 l7 -68 -97 0 -96 0 0 40 c0 117
42 194 103 188 27 -3 36 -10 54 -48z"/>
<path d="M4630 3060 c0 -5 17 -10 39 -10 l38 0 41 -87 c22 -49 80 -169 127
-268 l87 -180 48 120 c26 66 73 186 105 268 l58 147 38 0 c22 0 39 5 39 10 0
6 -40 10 -100 10 -102 0 -141 -16 -51 -22 l49 -3 -65 -163 c-36 -90 -68 -161
-70 -158 -3 2 -38 76 -78 163 l-73 158 49 3 c27 2 49 7 49 13 0 5 -68 9 -165
9 -103 0 -165 -4 -165 -10z"/>
</g>
</svg>
