<?xml version="1.0" standalone="no"?>
<!DOCTYPE svg PUBLIC "-//W3C//DTD SVG 20010904//EN"
 "http://www.w3.org/TR/2001/REC-SVG-20010904/DTD/svg10.dtd">
<svg version="1.0" xmlns="http://www.w3.org/2000/svg"
 width="1024.000000pt" height="377.000000pt" viewBox="0 0 1024.000000 377.000000"
 preserveAspectRatio="xMidYMid meet">

<g transform="translate(0.000000,377.000000) scale(0.100000,-0.100000)"
fill="#000000" stroke="none">
<path d="M4670 2935 l454 -454 23 21 c13 12 22 26 21 30 -2 5 -195 200 -428
434 l-425 424 -50 0 -50 0 455 -455z"/>
<path d="M4830 2985 l405 -405 25 25 25 25 -380 380 -380 380 -50 0 -50 0 405
-405z"/>
<path d="M4968 3063 c181 -181 338 -337 350 -347 22 -19 22 -19 47 4 l26 24
-323 323 -323 323 -52 0 -53 0 328 -327z"/>
<path d="M5357 3222 l-168 -168 26 -24 26 -24 192 192 192 192 -50 0 -50 0
-168 -168z"/>
<path d="M5520 3175 c-118 -118 -216 -218 -218 -223 -1 -4 8 -18 21 -30 l23
-21 244 244 245 245 -50 0 -50 0 -215 -215z"/>
<path d="M5660 3118 l-265 -268 25 -25 25 -25 295 295 295 295 -55 -2 -55 -1
-265 -269z"/>
<path d="M184 2485 c-4 -8 -4 -22 0 -30 5 -13 270 -15 2306 -15 1265 0 2300 4
2300 8 0 5 -9 18 -20 30 l-21 22 -2280 0 c-2017 0 -2280 -2 -2285 -15z"/>
<path d="M5470 2478 c-11 -12 -20 -25 -20 -30 0 -4 1036 -7 2303 -6 l2302 3 0
25 0 25 -2282 3 -2282 2 -21 -22z"/>
<path d="M5765 1851 c-7 -12 -112 -299 -280 -761 -208 -573 -219 -601 -271
-635 -15 -10 -50 -20 -78 -24 -28 -3 -50 -10 -48 -16 3 -13 401 -12 403 1 1 5
-15 12 -36 15 -84 14 -82 46 13 327 l67 197 218 3 218 2 16 -37 c33 -80 173
-456 173 -466 0 -6 -7 -18 -15 -27 -14 -16 -8 -17 91 -23 149 -10 256 -8 274
3 17 11 8 15 -54 24 -21 3 -56 17 -77 31 -50 32 -104 143 -228 465 -50 129
-150 390 -223 579 -73 190 -138 346 -145 348 -6 2 -14 -1 -18 -6z m13 -338
c100 -279 162 -461 162 -471 0 -9 -46 -12 -185 -12 -135 0 -185 3 -185 12 0
10 140 450 161 506 13 35 25 26 47 -35z"/>
<path d="M7110 1854 c-256 -31 -417 -112 -537 -269 -145 -191 -186 -465 -108
-712 104 -330 409 -506 844 -490 148 5 213 17 319 60 48 18 58 27 63 52 4 17
7 137 8 268 1 277 6 299 68 316 21 6 44 11 51 11 6 0 12 5 12 10 0 6 -82 10
-225 10 -211 0 -279 -9 -184 -24 66 -11 97 -31 108 -74 16 -57 14 -473 -3
-494 -34 -45 -189 -72 -327 -57 -280 32 -491 213 -581 499 -20 65 -23 95 -23
230 0 174 11 225 73 343 62 120 190 211 342 243 56 12 107 15 205 11 255 -11
399 -83 439 -218 9 -29 16 -59 16 -66 0 -7 4 -13 9 -13 6 0 24 199 26 300 0
10 -12 16 -40 18 -22 2 -92 12 -155 23 -112 19 -330 32 -400 23z"/>
<path d="M9155 1851 c-179 -29 -343 -119 -445 -244 -60 -73 -133 -215 -157
-307 -26 -97 -24 -290 5 -391 59 -211 184 -369 357 -454 117 -58 179 -70 355
-69 140 0 163 3 235 27 179 59 334 190 417 352 69 133 92 231 91 385 -1 220
-57 365 -195 502 -130 129 -293 194 -506 203 -59 2 -130 0 -157 -4z m179 -61
c221 -32 391 -186 465 -421 65 -205 48 -476 -39 -650 -61 -120 -175 -214 -309
-253 -83 -24 -230 -21 -312 7 -93 32 -172 83 -239 153 -72 78 -111 145 -152
265 -31 92 -32 98 -32 274 -1 159 2 188 21 250 66 209 220 344 425 373 87 13
94 13 172 2z"/>
<path d="M556 1821 c-3 -4 17 -11 45 -14 62 -8 107 -32 135 -75 12 -17 131
-305 264 -639 286 -717 284 -713 305 -713 16 0 53 73 142 280 62 145 287 682
363 870 35 85 75 175 89 199 29 49 80 81 128 81 18 0 33 5 33 10 0 6 -73 10
-200 10 -110 0 -200 -4 -200 -9 0 -4 21 -11 46 -14 93 -10 92 -22 -66 -442
-97 -260 -283 -725 -290 -725 -6 0 -302 781 -378 997 -54 152 -52 161 32 170
25 3 43 9 40 14 -7 12 -481 12 -488 0z"/>
<path d="M2230 1822 c0 -5 21 -13 47 -18 33 -6 52 -17 67 -37 21 -28 21 -35
21 -630 0 -657 -1 -675 -53 -695 -15 -6 -38 -12 -52 -14 -14 -2 -25 -7 -25
-13 0 -13 459 -13 463 0 1 6 -21 13 -50 16 -106 13 -109 20 -119 254 -9 223
-10 764 0 944 6 123 8 135 30 152 13 11 41 22 62 25 92 15 24 24 -176 24 -118
0 -215 -4 -215 -8z"/>
<path d="M2990 1820 c0 -5 14 -10 30 -10 44 0 96 -24 112 -52 10 -18 13 -139
13 -608 0 -322 -4 -607 -8 -633 -10 -60 -36 -87 -81 -87 -19 0 -38 -4 -41 -10
-3 -5 -3 -10 2 -10 4 -1 186 -3 404 -6 449 -6 419 -11 439 78 31 144 20 242
-14 125 -19 -66 -62 -111 -120 -126 -57 -14 -254 -14 -311 0 -57 14 -83 43
-95 108 -6 32 -10 271 -10 593 0 597 0 596 60 617 18 6 46 11 61 11 16 0 29 5
29 10 0 6 -85 10 -235 10 -150 0 -235 -4 -235 -10z"/>
<path d="M4060 1821 c0 -4 21 -11 46 -14 61 -6 96 -34 107 -83 4 -21 6 -302 5
-624 -4 -613 -6 -637 -48 -660 -10 -6 -33 -10 -50 -10 -19 0 -30 -5 -28 -11 6
-17 787 -24 811 -7 29 22 64 248 38 248 -5 0 -12 -15 -16 -33 -11 -51 -53
-115 -88 -134 -24 -13 -64 -18 -162 -21 -146 -5 -222 8 -253 41 -37 39 -42
124 -42 680 0 585 0 585 60 606 18 6 46 11 61 11 16 0 29 5 29 10 0 6 -85 10
-235 10 -129 0 -235 -4 -235 -9z"/>
<path d="M7980 1821 c0 -5 17 -11 39 -15 72 -11 82 -28 93 -152 13 -146 4
-1107 -11 -1154 -17 -53 -24 -60 -70 -68 -23 -4 -42 -11 -41 -17 0 -10 417
-17 453 -8 29 8 8 23 -32 23 -52 0 -94 16 -110 42 -23 36 -33 328 -29 815 3
439 4 453 24 480 15 20 34 31 67 37 26 5 47 13 47 18 0 4 -97 8 -215 8 -118 0
-215 -4 -215 -9z"/>
</g>
</svg>
