<?xml version="1.0" standalone="no"?>
<!DOCTYPE svg PUBLIC "-//W3C//DTD SVG 20010904//EN"
 "http://www.w3.org/TR/2001/REC-SVG-20010904/DTD/svg10.dtd">
<svg version="1.0" xmlns="http://www.w3.org/2000/svg"
 width="900.000000pt" height="900.000000pt" viewBox="0 0 900.000000 900.000000"
 preserveAspectRatio="xMidYMid meet">

<g transform="translate(0.000000,900.000000) scale(0.100000,-0.100000)"
fill="#000000" stroke="none">
<path d="M0 4500 l0 -4500 4500 0 4500 0 0 4500 0 4500 -4500 0 -4500 0 0
-4500z m4035 1454 c-26 -47 -45 -87 -43 -90 3 -2 112 7 244 21 291 29 424 40
844 65 359 22 416 23 385 10 -11 -4 -162 -16 -335 -25 -376 -19 -874 -60
-1112 -91 l-46 -6 -52 -93 c-28 -51 -63 -128 -78 -170 -26 -74 -26 -77 -8 -90
18 -13 17 -14 -7 -20 -75 -19 -59 56 53 250 33 57 60 108 60 113 0 10 -150 -9
-269 -33 -89 -18 -98 -18 -46 1 22 8 107 26 188 38 81 13 149 25 151 27 2 2
20 38 41 79 41 83 53 100 67 100 5 0 -11 -39 -37 -86z m293 -191 c-65 -113
-118 -223 -118 -246 0 -9 7 -20 17 -24 14 -5 13 -8 -6 -15 -65 -24 -54 33 40
201 88 156 97 171 110 171 4 0 -15 -39 -43 -87z m-841 -53 c2 -21 -2 -30 -13
-30 -20 0 -29 27 -14 45 18 22 25 18 27 -15z m1269 -108 c-25 -24 -27 -25 -17
-4 10 19 9 23 -6 29 -16 6 -15 8 7 14 40 10 48 -8 16 -39z m-255 22 c10 -12
10 -24 0 -64 -17 -65 -10 -74 53 -67 l51 5 -48 -15 c-27 -8 -60 -12 -73 -9
-22 6 -23 10 -21 74 2 64 1 67 -20 64 -13 -2 -23 -1 -23 3 0 6 39 23 56 24 6
1 17 -6 25 -15z m181 -26 c-18 -18 -14 -46 7 -58 41 -21 283 -5 445 30 49 11
91 18 93 16 9 -9 -218 -56 -316 -66 -196 -19 -271 -12 -271 29 0 21 39 75 48
66 3 -3 0 -11 -6 -17z m-272 8 c0 -1 -21 -17 -47 -34 -27 -17 -61 -41 -78 -54
-21 -16 -26 -17 -15 -4 24 31 140 107 140 92z m-3087 -669 c30 -14 72 -37 93
-51 44 -30 60 -23 70 30 3 19 12 34 20 34 11 0 14 -32 14 -175 0 -164 -1 -175
-19 -175 -15 0 -20 10 -25 49 -18 135 -64 209 -161 257 -64 31 -155 35 -209 9
-48 -23 -101 -79 -127 -134 -88 -187 -86 -496 3 -676 24 -48 82 -111 123 -133
45 -24 159 -21 210 5 99 51 146 127 163 258 5 45 11 61 25 63 16 3 17 -10 17
-155 0 -87 3 -168 6 -180 5 -18 2 -23 -13 -23 -14 0 -22 10 -29 37 -12 48 -31
51 -85 14 -172 -115 -452 -87 -600 61 -94 94 -139 218 -139 384 0 142 38 262
113 358 46 57 138 122 209 145 88 28 102 30 199 27 67 -3 99 -9 142 -29z
m2960 18 c87 -22 144 -53 206 -111 140 -129 187 -371 117 -592 -33 -101 -98
-190 -182 -247 -80 -55 -150 -77 -264 -82 -157 -8 -276 29 -372 116 -105 94
-158 224 -158 389 0 260 121 445 340 519 79 27 225 31 313 8z m2520 -18 c30
-14 72 -37 93 -51 44 -30 60 -23 70 30 3 19 12 34 20 34 11 0 14 -32 14 -175
0 -165 -1 -175 -19 -175 -15 0 -20 10 -26 56 -10 83 -31 134 -73 177 -53 56
-113 88 -174 94 -107 11 -189 -37 -245 -144 -100 -190 -90 -556 20 -719 87
-130 241 -153 366 -54 63 50 88 98 103 197 12 82 21 104 38 87 15 -15 15 -359
-1 -359 -7 0 -17 18 -23 40 -14 49 -35 55 -78 21 -63 -47 -127 -68 -228 -73
-258 -14 -441 117 -506 359 -17 64 -18 217 -3 290 14 66 57 160 98 216 60 81
183 153 301 176 14 2 64 3 111 2 67 -3 99 -9 142 -29z m-4313 3 c0 -5 -18 -14
-40 -20 -22 -6 -44 -19 -50 -30 -6 -11 -10 -102 -10 -219 l0 -201 191 0 190 0
-3 204 c-3 184 -5 206 -22 225 -11 12 -27 21 -37 21 -9 0 -24 3 -33 6 -47 18
5 24 204 24 218 0 264 -7 181 -30 -69 -18 -66 3 -66 -475 0 -408 1 -434 19
-453 10 -12 32 -22 49 -24 17 -2 32 -9 35 -15 3 -10 -45 -13 -217 -13 -190 0
-221 2 -221 15 0 9 10 15 26 15 73 0 84 34 84 271 l0 189 -190 0 -190 0 0
-200 c0 -230 4 -247 62 -256 23 -4 38 -12 38 -20 0 -11 -40 -14 -220 -14 -189
0 -220 2 -220 15 0 10 10 15 29 15 16 0 39 9 52 19 l24 19 3 414 c2 279 0 425
-8 450 -10 34 -16 39 -55 49 -25 6 -45 15 -45 20 0 5 99 9 220 9 134 0 220 -4
220 -10z m3118 -2 c-3 -7 -19 -16 -37 -19 -69 -14 -66 7 -66 -475 l0 -436 24
-19 c13 -10 36 -19 52 -19 19 0 29 -5 29 -15 0 -13 -31 -15 -220 -15 -180 0
-220 3 -220 14 0 8 16 16 39 20 69 11 66 -8 66 471 0 484 3 466 -71 479 -19 4
-34 11 -34 16 0 6 87 10 221 10 170 0 220 -3 217 -12z m2688 -19 c-3 -17 -6
-88 -6 -156 0 -95 -3 -124 -12 -121 -7 3 -20 31 -28 64 -25 94 -58 152 -103
182 -36 24 -52 27 -143 30 -140 5 -134 16 -134 -245 l0 -203 46 0 c65 0 100
24 134 94 17 33 30 65 30 73 0 7 8 13 18 13 16 0 17 -17 18 -205 1 -162 -1
-205 -11 -205 -8 0 -17 15 -20 33 -10 46 -39 98 -69 126 -20 19 -40 26 -87 29
l-60 4 3 -217 c4 -258 -3 -245 129 -245 75 0 94 4 140 28 64 33 108 97 129
188 33 144 48 120 52 -84 l3 -162 -398 0 c-310 0 -398 3 -395 12 3 7 20 16 39
19 71 15 69 3 69 469 0 245 -4 429 -10 444 -7 19 -21 28 -55 37 -25 6 -45 15
-45 20 0 5 170 9 386 9 l387 0 -7 -31z m-4176 -1649 l0 -40 58 -2 57 -2 -57
-3 -58 -4 0 -105 c0 -114 9 -144 43 -144 27 0 38 8 60 40 16 24 17 24 17 3 0
-12 -12 -31 -27 -43 -22 -17 -37 -21 -71 -17 -73 8 -81 23 -84 151 l-3 111
-35 6 -35 6 38 2 c36 1 37 2 37 41 0 38 2 40 30 40 28 0 30 -2 30 -40z m1390
0 l0 -40 53 -2 52 -1 -54 -6 -54 -6 2 -115 c2 -76 6 -117 14 -122 22 -14 48
-8 74 18 14 14 28 22 32 19 3 -4 -9 -20 -27 -36 -35 -31 -73 -37 -115 -18 -37
17 -47 50 -47 159 l0 100 -32 2 -33 1 33 4 c29 4 32 8 32 37 0 40 5 46 42 46
26 0 28 -3 28 -40z m-2678 -40 c42 -12 78 -52 78 -86 0 -24 -1 -24 -110 -24
l-110 0 0 -30 c0 -101 105 -151 190 -90 17 12 30 16 30 11 0 -16 -59 -50 -97
-57 -49 -9 -127 13 -158 46 -53 55 -41 164 23 206 47 31 99 39 154 24z m622
-1 c-37 -11 -58 -33 -51 -53 3 -8 42 -33 87 -56 44 -24 85 -51 91 -62 15 -28
7 -59 -21 -79 -31 -21 -80 -33 -80 -19 0 5 7 10 15 10 8 0 19 9 25 20 17 32
-4 57 -81 95 -78 40 -100 69 -81 110 11 25 55 43 102 43 22 0 21 -1 -6 -9z
m116 -34 c0 -25 -4 -45 -10 -45 -5 0 -10 6 -10 14 0 8 -14 26 -31 40 -31 26
-24 35 12 16 15 -9 21 -7 25 5 10 25 14 17 14 -30z m1354 15 c18 -17 22 -37
26 -128 l5 -107 30 3 c23 2 26 0 15 -8 -23 -15 -87 -12 -104 5 -14 14 -18 14
-45 0 -39 -19 -110 -19 -139 1 -30 21 -30 67 1 86 12 9 53 25 90 38 72 25 91
44 81 85 -3 14 -7 25 -8 25 0 0 -19 7 -41 16 l-40 15 54 -5 c37 -4 62 -12 75
-26z m1335 5 c27 -13 51 -52 51 -80 0 -12 -20 -15 -110 -15 l-110 0 0 -40 c0
-30 7 -48 29 -72 26 -29 36 -33 79 -33 38 0 56 5 74 23 33 30 47 28 18 -3 -62
-66 -215 -51 -255 25 -28 55 -14 143 29 179 48 40 136 47 195 16z m-1488 6
c-12 -8 -12 -12 -2 -25 20 -24 6 -46 -29 -46 -43 0 -51 27 -16 57 15 12 35 23
44 23 14 0 15 -2 3 -9z m1853 -106 c20 -21 10 -45 -20 -45 -19 0 -24 5 -24 24
0 13 6 27 13 29 6 3 13 6 14 6 1 1 8 -6 17 -14z m-4261 -7 c7 -21 -4 -38 -23
-38 -23 0 -34 16 -26 35 7 18 43 20 49 3z m1007 -66 c0 -24 28 -62 54 -72 15
-6 8 -8 -26 -7 l-48 2 0 48 c0 26 5 47 10 47 6 0 10 -8 10 -18z"/>
<path d="M4084 4941 c-96 -24 -176 -151 -203 -322 -15 -92 -13 -292 4 -372 47
-224 185 -343 328 -283 63 26 130 125 162 242 26 92 32 321 11 423 -45 223
-164 346 -302 312z"/>
<path d="M2739 3215 c-21 -11 -49 -58 -49 -81 0 -2 34 -4 75 -4 l75 0 0 28 c0
30 -36 72 -61 72 -8 -1 -26 -7 -40 -15z"/>
<path d="M4824 3092 c-55 -22 -74 -40 -74 -66 0 -30 19 -46 55 -46 53 0 75 24
75 81 0 27 -3 49 -7 48 -5 0 -27 -8 -49 -17z"/>
<path d="M6143 3220 c-21 -8 -53 -57 -53 -80 0 -6 30 -10 76 -10 l77 0 -7 33
c-6 32 -38 68 -60 66 -6 0 -21 -4 -33 -9z"/>
</g>
</svg>
