<?xml version="1.0" standalone="no"?>
<!DOCTYPE svg PUBLIC "-//W3C//DTD SVG 20010904//EN"
 "http://www.w3.org/TR/2001/REC-SVG-20010904/DTD/svg10.dtd">
<svg version="1.0" xmlns="http://www.w3.org/2000/svg"
 width="320.000000pt" height="200.000000pt" viewBox="0 0 320.000000 200.000000"
 preserveAspectRatio="xMidYMid meet">

<g transform="translate(0.000000,200.000000) scale(0.100000,-0.100000)"
fill="#000000" stroke="none">
<path d="M0 1270 c0 -18 7 -20 80 -20 78 0 80 1 70 20 -9 17 -21 20 -80 20
-63 0 -70 -2 -70 -20z"/>
<path d="M416 1275 c-4 -13 7 -15 69 -15 60 0 75 3 75 15 0 22 -135 22 -144 0z"/>
<path d="M700 1010 l0 -280 70 0 69 0 3 138 3 137 70 -137 70 -138 72 0 73 0
0 280 0 280 -70 0 -69 0 -3 -137 -3 -138 -70 138 -70 137 -72 0 -73 0 0 -280z"/>
<path d="M1200 1010 l0 -280 70 0 70 0 0 90 0 90 85 0 85 0 0 70 0 70 -85 0
-85 0 0 50 0 50 105 0 105 0 0 70 0 70 -175 0 -175 0 0 -280z"/>
<path d="M1660 1010 l0 -280 700 0 700 0 70 140 70 140 -70 140 -70 140 -700
0 -700 0 0 -280z m371 84 c13 -12 16 -21 9 -28 -6 -6 -16 -4 -28 7 -48 44
-132 4 -132 -62 0 -68 83 -109 132 -64 29 26 22 43 -17 43 -19 0 -35 5 -35 10
0 6 23 10 50 10 54 0 60 -8 38 -55 -14 -32 -56 -55 -99 -55 -22 0 -41 10 -65
34 -28 28 -34 42 -34 76 0 35 6 48 35 77 33 33 39 35 81 30 25 -2 54 -13 65
-23z m216 0 c20 -27 16 -72 -7 -86 -26 -16 -25 -23 5 -62 28 -37 31 -46 13
-46 -7 0 -26 20 -43 45 -39 58 -55 58 -55 0 0 -33 -4 -45 -15 -45 -12 0 -15
19 -15 111 l0 112 52 -5 c34 -4 56 -12 65 -24z m259 -8 c28 -28 34 -42 34 -76
0 -35 -6 -48 -35 -77 -33 -33 -39 -35 -81 -30 -52 5 -79 26 -94 73 -24 72 31
144 109 144 24 0 42 -9 67 -34z m124 -35 c0 -110 26 -149 76 -116 22 14 24 22
24 101 0 64 3 85 13 81 8 -3 12 -30 12 -92 -1 -79 -3 -89 -24 -106 -30 -25
-76 -24 -101 1 -17 17 -20 33 -20 110 0 53 4 90 10 90 6 0 10 -30 10 -69z
m315 44 c30 -29 31 -45 4 -79 -15 -19 -30 -26 -55 -26 -34 0 -34 0 -34 -46 0
-32 -4 -44 -12 -42 -13 5 -24 177 -14 205 9 24 84 16 111 -12z"/>
<path d="M2160 1050 c0 -36 3 -40 24 -40 26 0 56 23 56 44 0 20 -22 36 -52 36
-26 0 -28 -3 -28 -40z"/>
<path d="M2371 1064 c-45 -57 -11 -134 60 -134 52 0 79 27 79 80 0 53 -27 80
-79 80 -31 0 -44 -6 -60 -26z"/>
<path d="M2860 1050 c0 -34 3 -40 21 -40 31 0 59 18 59 38 0 26 -20 42 -52 42
-26 0 -28 -3 -28 -40z"/>
<path d="M386 1215 c-4 -13 9 -15 84 -15 73 0 90 3 90 15 0 12 -16 15 -84 15
-65 0 -85 -3 -90 -15z"/>
<path d="M2 1198 c3 -22 8 -23 96 -26 91 -3 98 0 86 32 -5 13 -23 16 -96 16
-87 0 -89 -1 -86 -22z"/>
<path d="M356 1155 c-5 -13 10 -15 99 -15 87 0 105 3 105 15 0 22 -195 22
-204 0z"/>
<path d="M0 1130 c0 -19 7 -20 115 -20 113 0 115 1 105 20 -10 18 -21 20 -115
20 -98 0 -105 -1 -105 -20z"/>
<path d="M327 1103 c-19 -18 3 -23 113 -23 100 0 120 3 120 15 0 12 -19 15
-113 15 -63 0 -117 -3 -120 -7z"/>
<path d="M0 1060 c0 -19 7 -20 131 -20 115 0 130 2 125 16 -3 9 -6 18 -6 20 0
2 -56 4 -125 4 -118 0 -125 -1 -125 -20z"/>
<path d="M290 1030 c-10 -19 -21 -20 -150 -20 -133 0 -140 -1 -140 -20 0 -19
7 -20 130 -20 119 0 130 2 140 20 10 19 21 20 150 20 133 0 140 1 140 20 0 19
-7 20 -130 20 -119 0 -130 -2 -140 -20z"/>
<path d="M300 972 c0 -25 30 -32 142 -32 111 0 118 1 118 20 0 19 -7 20 -130
20 -72 0 -130 -4 -130 -8z"/>
<path d="M0 925 c0 -13 17 -15 117 -13 82 2 118 7 121 16 3 9 -25 12 -117 12
-102 0 -121 -2 -121 -15z"/>
<path d="M337 914 c-3 -4 -2 -15 4 -25 8 -17 22 -19 114 -19 l105 0 0 25 0 25
-108 0 c-60 0 -112 -3 -115 -6z"/>
<path d="M0 865 c0 -13 16 -15 102 -13 70 2 103 7 106 16 3 9 -22 12 -102 12
-89 0 -106 -3 -106 -15z"/>
<path d="M370 844 c0 -3 5 -14 10 -25 9 -16 22 -19 95 -19 84 0 85 0 85 25 0
25 0 25 -95 25 -52 0 -95 -3 -95 -6z"/>
<path d="M0 805 c0 -13 14 -15 87 -13 58 2 88 7 91 16 3 9 -19 12 -87 12 -75
0 -91 -3 -91 -15z"/>
<path d="M414 754 c3 -9 6 -18 6 -20 0 -2 32 -4 70 -4 63 0 70 2 70 20 0 18
-7 20 -76 20 -65 0 -75 -2 -70 -16z"/>
<path d="M0 745 c0 -13 12 -15 72 -13 46 2 73 7 76 16 3 9 -16 12 -72 12 -62
0 -76 -3 -76 -15z"/>
</g>
</svg>
