<?xml version="1.0" standalone="no"?>
<!DOCTYPE svg PUBLIC "-//W3C//DTD SVG 20010904//EN"
 "http://www.w3.org/TR/2001/REC-SVG-20010904/DTD/svg10.dtd">
<svg version="1.0" xmlns="http://www.w3.org/2000/svg"
 width="2721.000000pt" height="1497.000000pt" viewBox="0 0 2721.000000 1497.000000"
 preserveAspectRatio="xMidYMid meet">

<g transform="translate(0.000000,1497.000000) scale(0.100000,-0.100000)"
fill="#000000" stroke="none">
<path d="M10 7490 l0 -7480 13600 0 13600 0 0 7480 0 7480 -13600 0 -13600 0
0 -7480z m14229 5394 l1 -281 -26 -12 c-15 -6 -28 -10 -30 -8 -2 2 1 210 7
463 8 319 15 461 23 466 14 9 23 -224 25 -628z m171 -388 l0 -94 -32 -11
c-112 -34 -432 -135 -481 -151 l-58 -19 3 96 3 96 250 81 c138 45 257 85 265
88 46 19 50 13 50 -86z m320 -234 l0 -98 -667 -198 c-368 -109 -674 -201 -680
-203 -10 -4 -13 18 -13 88 l0 94 668 206 c367 114 673 207 680 208 9 1 12 -25
12 -97z m-2 -338 l-3 -96 -60 -18 c-77 -23 -1231 -347 -1268 -356 l-28 -6 3
92 3 92 305 89 c168 48 465 135 660 192 195 58 363 105 373 106 16 1 17 -8 15
-95z m-2 -431 c-4 -4 -203 -57 -1208 -322 l-148 -39 0 92 0 92 678 185 677
185 3 -94 c1 -52 1 -97 -2 -99z m4 -243 c0 -55 -2 -100 -3 -100 -2 0 -305 -74
-673 -165 -368 -91 -673 -165 -677 -165 -4 0 -6 41 -5 92 l3 92 185 47 c241
61 871 222 1030 264 69 18 128 34 133 34 4 1 7 -44 7 -99z m0 -338 l0 -98
-409 -93 -409 -94 -39 31 c-21 17 -58 50 -82 75 l-43 45 233 56 c129 31 344
83 479 115 135 33 251 60 258 60 9 1 12 -25 12 -97z m-990 -265 l0 -123 -357
-82 c-197 -45 -496 -113 -665 -152 -169 -38 -310 -70 -313 -70 -3 0 -4 51 -3
113 l3 112 40 10 c22 5 315 78 650 161 336 84 618 152 628 153 15 1 17 -11 17
-122z m-3994 0 c323 -53 553 -129 776 -255 126 -71 222 -144 331 -251 158
-153 257 -293 356 -502 127 -267 192 -551 210 -906 32 -626 -120 -1219 -432
-1686 -104 -156 -185 -253 -314 -378 -329 -319 -701 -500 -1198 -581 -107 -17
-547 -17 -685 0 -385 49 -745 178 -1000 359 -122 87 -306 272 -392 393 -132
185 -256 473 -307 712 -67 311 -83 718 -41 1018 152 1084 894 1906 1870 2070
170 29 163 28 460 25 183 -2 306 -8 366 -18z m4982 -74 l-3 -97 -295 -62
c-162 -35 -305 -66 -317 -69 -22 -5 -23 -3 -23 54 0 54 -3 62 -31 86 -17 14
-29 28 -26 31 7 7 644 151 675 153 22 1 23 0 20 -96z m-9486 27 c811 -59 1248
-510 1248 -1290 0 -688 -420 -1224 -1101 -1405 -197 -52 -318 -67 -581 -72
l-248 -5 0 150 0 150 118 7 c411 22 670 127 848 343 156 190 235 506 205 824
-39 416 -215 712 -508 857 -174 86 -256 98 -707 107 l-356 7 0 -1124 c0 -1036
10 -1852 29 -2340 7 -179 9 -199 30 -232 13 -21 35 -44 51 -52 15 -8 164 -48
331 -90 167 -41 313 -79 323 -83 17 -7 19 -17 17 -73 -1 -35 -7 -81 -12 -101
l-10 -38 -1003 0 c-937 0 -1004 1 -1010 17 -4 9 -10 51 -13 93 l-6 76 174 53
c96 29 192 64 215 76 93 54 166 174 185 306 7 49 12 627 16 1705 6 1807 10
1684 -58 1767 -41 49 -54 55 -296 139 -115 39 -214 75 -221 81 -15 12 -11 63
9 125 l11 32 1091 0 c619 0 1151 -4 1229 -10z m12965 -1707 c1043 -1508 1192
-1718 1216 -1721 27 -3 27 -3 22 50 -48 447 -48 463 -54 1668 l-6 1155 -33 69
c-39 82 -88 146 -137 176 -20 12 -122 50 -227 84 l-192 61 3 57 c1 31 6 69 10
85 l7 28 771 3 772 2 11 -52 c7 -29 10 -66 8 -82 -3 -29 -6 -30 -188 -86 -102
-31 -196 -62 -208 -69 -71 -38 -123 -108 -171 -225 -15 -37 -16 -212 -21
-1985 l-5 -1945 -250 -83 c-146 -49 -255 -80 -262 -76 -7 4 -221 314 -476 688
-1798 2643 -2102 3088 -2114 3092 -8 3 -17 3 -20 0 -3 -4 4 -122 16 -264 19
-237 21 -327 21 -1108 1 -970 13 -1709 31 -1779 7 -27 24 -58 41 -75 34 -33
52 -40 382 -148 l238 -78 -6 -60 c-3 -33 -11 -77 -17 -98 l-10 -37 -836 2
-837 3 -13 50 c-7 28 -13 68 -13 90 l0 40 178 54 c97 30 199 66 225 79 96 51
179 178 213 327 23 104 32 657 33 2055 1 1308 3 1262 -57 1360 -46 74 -90 99
-297 169 -105 35 -192 66 -194 67 -7 6 -4 107 3 142 l8 32 623 0 623 0 1189
-1717z m6093 1233 c0 -340 -3 -487 -11 -492 -6 -3 -48 -9 -93 -11 l-81 -6 -23
93 c-59 241 -169 412 -312 485 -111 56 -138 59 -682 70 l-248 4 0 -1259 c0
-1145 13 -2011 34 -2344 7 -94 33 -157 80 -185 20 -13 137 -43 307 -79 l274
-59 -2 -49 c-2 -27 -6 -73 -9 -102 l-5 -52 -1017 2 -1016 3 -13 65 c-8 36 -12
81 -11 100 l3 34 233 62 c267 70 293 83 353 184 43 70 64 135 80 242 8 49 13
630 16 1754 l5 1681 -363 -4 c-200 -2 -395 -9 -434 -14 -237 -34 -372 -209
-460 -603 l-6 -29 -82 6 c-45 3 -90 8 -99 12 -17 7 -18 39 -18 484 0 263 3
481 7 484 3 4 813 7 1800 7 l1793 0 0 -484z m-10560 201 l0 -123 -362 -77
c-200 -42 -491 -104 -648 -137 -157 -33 -295 -62 -307 -65 -23 -5 -23 -4 -23
108 l0 114 488 111 c268 62 561 130 652 151 91 21 173 39 183 40 15 1 17 -11
17 -122z m990 -87 c0 -95 -1 -100 -22 -105 -69 -15 -590 -115 -603 -115 -12 0
-15 16 -15 93 l0 93 313 66 c171 36 315 66 320 67 4 0 7 -44 7 -99z m-990
-234 l0 -123 -322 -63 c-178 -35 -477 -93 -666 -130 -188 -37 -344 -64 -347
-62 -3 3 -5 54 -5 113 0 104 1 109 23 114 125 28 1286 273 1300 274 15 1 17
-11 17 -123z m990 -106 c0 -55 -3 -100 -7 -100 -4 0 -146 -25 -315 -55 -169
-30 -310 -55 -313 -55 -5 0 -8 190 -2 190 1 1 139 27 307 59 168 32 311 59
318 60 9 1 12 -25 12 -99z m-990 -215 c0 -69 -3 -125 -7 -125 -4 0 -298 -52
-653 -115 -355 -63 -654 -115 -663 -115 -15 0 -17 13 -17 110 0 61 1 110 3
111 31 7 1307 257 1320 258 15 1 17 -11 17 -124z m990 -123 l0 -97 -307 -49
c-170 -27 -314 -51 -321 -54 -10 -3 -12 17 -10 94 l3 99 295 51 c162 29 305
53 318 53 21 1 22 -2 22 -97z m-990 -196 l0 -124 -67 -11 c-38 -6 -210 -34
-383 -61 -173 -28 -439 -71 -590 -95 -151 -25 -281 -45 -288 -45 -10 0 -12 26
-10 112 l3 113 155 28 c864 155 1148 205 1163 206 15 1 17 -11 17 -123z m990
-141 c0 -90 -1 -95 -22 -100 -31 -6 -588 -85 -605 -85 -10 0 -13 22 -13 94 l0
93 118 18 c64 10 194 30 287 45 94 15 185 28 203 29 l32 1 0 -95z m-990 -180
c0 -69 -3 -125 -7 -125 -5 0 -304 -43 -666 -95 -362 -52 -660 -95 -663 -95 -2
0 -4 51 -4 114 l0 113 138 22 c75 12 369 60 652 106 283 46 523 84 533 84 15
1 17 -11 17 -124z m990 -155 l0 -99 -32 -6 c-33 -5 -590 -75 -602 -75 -3 0 -6
43 -6 95 l0 94 33 6 c17 3 149 21 292 40 143 19 267 37 275 39 39 10 40 8 40
-94z m-990 -164 l0 -124 -37 -6 c-21 -3 -308 -40 -638 -81 -330 -41 -615 -77
-632 -80 l-33 -6 0 116 c0 63 3 115 8 115 4 1 295 43 647 94 352 52 650 94
663 95 22 1 22 -1 22 -123z m990 -176 c0 -79 -3 -100 -14 -100 -15 0 -538 -57
-594 -64 l-33 -5 3 97 3 97 295 36 c162 20 305 37 318 38 21 1 22 -2 22 -99z
m-990 -145 c0 -69 -2 -125 -4 -125 -2 0 -147 -16 -322 -35 -678 -75 -959 -105
-986 -105 l-28 0 0 109 0 109 28 6 c15 3 245 33 512 66 267 34 546 69 620 79
74 10 145 19 158 20 22 1 22 -1 22 -124z m988 -192 l-3 -98 -285 -27 c-157
-15 -300 -27 -317 -27 l-33 -1 0 94 0 93 168 17 c92 10 219 23 282 30 63 8
132 14 153 15 l38 1 -3 -97z m-988 -128 c0 -69 -2 -125 -4 -125 -3 0 -297 -27
-655 -60 -358 -33 -658 -60 -666 -60 -13 0 -15 17 -13 112 l3 113 640 71 c352
39 652 72 668 73 l27 1 0 -125z m985 -303 c-4 -4 -556 -51 -617 -52 -16 0 -18
11 -18 95 0 52 3 95 8 96 4 0 147 13 317 27 l310 27 3 -94 c1 -51 0 -96 -3
-99z m-985 -16 l0 -124 -62 -6 c-61 -6 -1252 -96 -1269 -96 -5 0 -9 52 -9 115
0 112 1 115 23 116 12 0 299 26 637 58 338 33 630 59 648 60 l32 1 0 -124z
m990 -226 l0 -100 -32 -1 c-18 0 -159 -8 -313 -18 -154 -10 -283 -16 -287 -14
-14 7 -9 183 5 188 9 3 473 37 605 44 21 1 22 -2 22 -99z m-990 -94 l0 -124
-77 -6 c-43 -4 -314 -20 -603 -36 -289 -16 -555 -32 -592 -35 l-68 -6 0 115
c0 104 2 116 18 117 9 0 294 22 632 48 338 27 632 49 653 50 l37 1 0 -124z
m990 -244 l0 -98 -282 -12 c-156 -7 -300 -12 -320 -12 l-38 0 0 95 0 95 48 1
c26 1 144 7 262 14 118 6 241 13 273 14 l57 1 0 -98z m-990 -77 l0 -125 -27
-1 c-16 0 -315 -12 -666 -27 -351 -15 -641 -25 -643 -23 -4 5 -6 220 -1 222 5
2 1245 77 1290 78 l47 1 0 -125z m990 -260 c0 -68 -4 -97 -12 -99 -7 -3 -151
-7 -320 -11 l-308 -6 0 96 c0 91 1 95 23 96 85 6 375 16 485 17 l132 2 0 -95z
m-990 -59 l0 -124 -142 -6 c-167 -7 -971 -26 -1105 -26 l-93 0 0 110 c0 80 3
112 13 114 11 4 555 27 1012 43 94 3 172 7 174 9 2 2 35 4 73 4 l68 0 0 -124z
m990 -276 l0 -100 -192 0 c-106 0 -251 -3 -321 -7 l-128 -6 3 99 3 99 255 5
c140 3 283 7 318 8 l62 2 0 -100z m-990 -43 l0 -124 -302 -6 c-166 -4 -467 -7
-670 -7 l-368 0 0 114 0 113 313 8 c171 4 434 11 582 15 149 4 309 7 358 8
l87 2 0 -123z m1394 -228 c3 -17 6 -51 6 -75 l0 -44 -1612 2 -1613 3 4 50 c1
27 7 59 12 72 l9 23 1594 0 1594 0 6 -31z m-509 -2220 c70 -200 169 -487 221
-638 52 -150 102 -287 110 -305 9 -17 36 -52 61 -77 32 -34 44 -53 41 -70 l-3
-24 -285 0 -285 0 -3 25 c-3 24 2 27 70 45 137 37 144 71 67 324 -27 91 -52
174 -55 184 -5 16 -23 17 -237 15 l-232 -3 -72 -185 c-40 -102 -73 -195 -73
-208 0 -51 26 -79 107 -112 93 -38 94 -39 87 -68 -6 -22 -7 -22 -235 -22
l-229 0 0 29 c0 22 8 36 31 52 17 12 43 38 58 59 15 20 146 323 291 673 l265
637 80 29 c60 22 82 26 87 17 4 -7 64 -177 133 -377z m-3500 336 c39 -8 98
-26 133 -41 l62 -26 0 -139 0 -139 -34 0 c-31 0 -35 4 -51 47 -25 64 -94 136
-157 163 -28 12 -82 24 -122 27 -185 14 -316 -72 -316 -206 0 -102 59 -156
294 -271 256 -125 348 -195 404 -309 24 -50 27 -67 27 -161 0 -99 -2 -110 -33
-172 -56 -115 -166 -193 -327 -233 -83 -21 -251 -24 -340 -6 -70 14 -208 58
-249 78 l-28 15 6 96 c4 54 9 125 13 160 l5 63 40 -3 c39 -3 40 -4 59 -61 56
-166 163 -240 349 -241 84 -1 101 2 145 26 157 83 194 250 76 349 -20 17 -121
73 -226 124 -205 102 -290 161 -342 239 -133 198 -44 467 193 581 38 19 88 39
110 44 61 14 232 12 309 -4z m-3355 -40 l0 -35 -2440 0 -2440 0 0 35 0 35
2440 0 2440 0 0 -35z m1780 -110 l0 -145 -38 0 c-36 0 -38 2 -49 43 -15 54
-47 96 -89 113 -23 10 -101 16 -244 21 l-210 6 0 -279 0 -280 265 4 265 4 0
-66 0 -66 -265 7 -265 6 0 -205 c0 -113 3 -239 6 -281 l7 -77 171 0 c280 0
344 21 420 137 41 61 63 74 95 54 11 -7 10 -29 -3 -132 -9 -68 -19 -134 -21
-146 l-5 -23 -550 0 -550 0 0 33 c0 33 1 33 69 51 49 13 78 27 98 48 l28 29 3
571 c2 477 0 574 -12 592 -8 13 -45 33 -95 50 -82 29 -86 32 -75 60 5 14 61
16 525 16 l519 0 0 -145z m3710 -15 l0 -160 -29 0 c-27 0 -31 4 -46 56 -21 72
-75 131 -130 144 -22 5 -102 10 -178 10 l-138 0 3 -597 c2 -329 7 -606 12
-615 8 -18 38 -29 141 -51 57 -13 60 -15 63 -45 l3 -32 -335 0 c-283 0 -336 2
-336 14 0 8 -3 21 -6 29 -6 16 3 19 118 52 51 14 60 20 80 58 23 42 23 42 26
615 l3 572 -156 0 c-175 0 -207 -8 -248 -61 -14 -19 -33 -60 -42 -91 -15 -53
-19 -58 -44 -58 -37 0 -41 21 -41 191 l0 129 640 0 640 0 0 -160z m3560 0 l0
-160 -28 0 c-25 0 -30 5 -41 43 -20 65 -48 110 -88 137 -35 24 -45 25 -201 29
l-164 3 4 -598 c2 -330 8 -607 12 -616 8 -18 38 -29 141 -51 57 -13 60 -15 63
-45 l3 -32 -336 0 -336 0 3 31 c3 31 6 33 82 55 91 26 110 44 126 117 6 30 10
253 10 593 l0 546 -168 -4 c-141 -2 -172 -6 -195 -21 -36 -23 -63 -68 -83
-134 -14 -48 -18 -53 -45 -53 l-29 0 0 160 0 160 635 0 635 0 0 -160z m1750
15 l0 -145 -38 0 c-38 0 -39 1 -55 53 -18 57 -45 89 -90 106 -16 6 -123 14
-238 18 l-209 6 0 -279 0 -279 265 3 265 4 0 -66 0 -66 -265 6 -265 7 2 -279
3 -279 200 0 c141 0 214 4 248 14 57 17 139 86 168 142 20 39 47 50 77 30 13
-8 6 -87 -24 -268 l-5 -33 -548 0 -549 0 -4 30 c-3 17 -2 33 1 35 4 2 35 11
71 20 73 19 97 35 116 82 18 43 21 1108 3 1147 -11 24 -57 49 -141 76 -36 11
-50 35 -31 53 3 4 240 7 525 7 l518 0 0 -145z m5730 110 l0 -35 -2440 0 -2440
0 0 35 0 35 2440 0 2440 0 0 -35z"/>
<path d="M9017 10290 c-322 -51 -570 -185 -762 -410 -200 -237 -331 -563 -395
-985 -28 -178 -39 -628 -21 -822 43 -462 166 -847 357 -1114 287 -402 740
-573 1274 -483 131 22 225 52 345 109 292 138 499 379 639 742 185 479 216
1283 71 1847 -154 600 -474 966 -955 1091 -94 24 -126 28 -300 31 -107 1 -221
-1 -253 -6z"/>
<path d="M14347 4180 c-4 -8 -26 -71 -51 -140 -25 -69 -70 -188 -100 -265
l-55 -140 186 -3 c102 -1 188 -1 190 1 2 2 -29 112 -68 243 -93 314 -96 322
-102 304z"/>
</g>
</svg>
