<?xml version="1.0" standalone="no"?>
<!DOCTYPE svg PUBLIC "-//W3C//DTD SVG 20010904//EN"
 "http://www.w3.org/TR/2001/REC-SVG-20010904/DTD/svg10.dtd">
<svg version="1.0" xmlns="http://www.w3.org/2000/svg"
 width="960.000000pt" height="1242.000000pt" viewBox="0 0 960.000000 1242.000000"
 preserveAspectRatio="xMidYMid meet">

<g transform="translate(0.000000,1242.000000) scale(0.100000,-0.100000)"
fill="#000000" stroke="none">
<path d="M8392 12408 c-5 -7 -97 -218 -205 -468 -107 -250 -349 -813 -537
-1250 -188 -437 -375 -871 -415 -965 -40 -93 -330 -768 -645 -1500 -315 -731
-668 -1553 -785 -1825 -177 -411 -836 -1943 -880 -2045 l-13 -30 -10 25 c-6
14 -36 90 -67 170 l-57 145 25 60 c13 33 268 627 567 1320 602 1400 1194 2775
1540 3580 599 1393 952 2213 1057 2457 78 182 113 273 108 287 -9 29 -44 37
-65 15 -9 -11 -63 -127 -120 -259 -120 -281 -747 -1739 -1255 -2920 -196 -456
-460 -1068 -585 -1360 -125 -291 -306 -712 -402 -935 -96 -223 -340 -791 -543
-1262 -203 -472 -371 -858 -374 -858 -6 1 -132 319 -131 332 0 4 237 557 526
1230 290 673 636 1477 769 1788 134 311 326 759 428 995 165 383 542 1260
1163 2705 124 288 203 485 202 500 -3 21 -8 25 -37 25 -33 0 -36 -3 -61 -65
-15 -36 -175 -407 -355 -825 -180 -418 -430 -998 -555 -1290 -413 -960 -683
-1589 -1030 -2395 -676 -1572 -783 -1820 -938 -2182 -86 -202 -159 -368 -162
-368 -3 1 -34 76 -70 168 l-66 167 157 365 c86 201 318 739 514 1195 440 1022
991 2303 1557 3620 236 550 486 1130 554 1288 100 233 122 292 114 308 -15 26
-56 24 -74 -3 -8 -13 -83 -183 -166 -378 -84 -195 -319 -742 -522 -1215 -204
-473 -500 -1161 -658 -1530 -159 -368 -417 -969 -575 -1335 -157 -366 -433
-1008 -613 -1427 -180 -420 -329 -763 -332 -763 -3 0 -72 165 -152 368 -793
1988 -1118 2804 -1464 3672 -222 558 -411 1030 -419 1048 -13 27 -20 33 -42
30 -53 -6 -51 -26 12 -185 32 -81 289 -726 571 -1433 281 -707 586 -1472 677
-1700 91 -228 301 -755 466 -1170 l301 -754 -72 -168 c-40 -92 -76 -164 -79
-160 -4 4 -106 257 -227 562 -121 305 -407 1023 -635 1595 -228 572 -620 1555
-871 2185 -251 630 -465 1164 -476 1188 -15 33 -25 42 -45 42 -14 0 -29 -8
-35 -20 -13 -23 -55 87 715 -1845 1388 -3479 1525 -3824 1525 -3834 0 -5 -28
-76 -63 -158 -35 -81 -67 -157 -71 -168 -8 -21 -3 -34 -846 2080 -175 440
-542 1360 -815 2045 -273 685 -553 1387 -622 1560 -69 173 -130 321 -135 328
-16 19 -56 14 -68 -7 -11 -22 -102 207 1623 -4116 759 -1904 800 -2008 800
-2020 0 -19 -137 -335 -145 -335 -5 0 -8 4 -8 9 0 9 -128 331 -1133 2851
-1519 3811 -1439 3612 -1459 3624 -23 14 -52 -3 -56 -31 -2 -11 166 -445 374
-964 207 -519 476 -1196 599 -1504 123 -308 446 -1118 718 -1800 272 -682 590
-1480 707 -1773 l212 -533 -67 -157 c-37 -86 -71 -163 -74 -170 -5 -8 -18 15
-36 60 -15 40 -287 721 -603 1513 -315 792 -638 1602 -717 1800 -79 198 -412
1033 -740 1855 -328 822 -613 1537 -633 1589 -20 51 -43 95 -50 98 -25 10 -62
-7 -62 -29 0 -24 27 -91 835 -2118 306 -767 612 -1534 680 -1705 68 -170 365
-915 660 -1655 295 -740 554 -1388 574 -1440 l38 -95 -71 -167 c-39 -92 -73
-167 -76 -167 -3 0 -94 223 -202 497 -108 273 -479 1204 -824 2067 -344 864
-668 1676 -719 1805 -530 1338 -1189 2977 -1201 2987 -22 16 -58 1 -62 -25 -2
-12 98 -275 221 -584 124 -310 437 -1096 697 -1748 260 -652 757 -1898 1105
-2770 348 -872 701 -1757 784 -1967 l152 -382 -51 -118 c-68 -157 -90 -177
-131 -120 -9 12 -134 319 -279 682 -144 363 -503 1263 -797 2000 -294 737
-590 1480 -658 1650 -92 232 -983 2466 -1310 3285 -39 98 -59 118 -94 94 -15
-11 -21 -23 -18 -38 2 -11 257 -655 567 -1431 309 -775 712 -1786 895 -2245
183 -459 539 -1350 790 -1980 251 -630 537 -1347 636 -1595 191 -481 209 -515
279 -536 33 -10 44 -9 77 8 32 16 46 34 90 123 41 82 54 100 59 85 22 -62 68
-153 87 -173 86 -92 176 -53 242 106 16 37 31 70 35 75 3 4 21 -28 38 -72 90
-220 224 -211 314 21 13 32 25 58 28 58 3 0 17 -33 32 -73 51 -136 126 -190
205 -150 32 16 46 34 90 123 l52 104 12 -30 c63 -150 88 -185 145 -204 69 -23
119 17 178 145 l42 90 29 -74 c36 -92 95 -160 145 -167 58 -9 97 25 152 134
25 51 48 95 50 97 2 3 19 -32 37 -76 53 -129 127 -182 200 -145 44 23 70 67
159 276 73 170 171 397 650 1510 575 1336 910 2115 1097 2550 117 272 380 884
585 1360 509 1183 965 2244 1414 3289 115 268 184 441 181 452 -10 31 -66 36
-78 6 -5 -12 -53 -123 -762 -1772 -213 -495 -400 -929 -415 -965 -15 -36 -201
-468 -413 -960 -423 -983 -959 -2230 -1529 -3555 -204 -473 -440 -1022 -525
-1220 -85 -198 -203 -470 -260 -605 -58 -135 -112 -255 -121 -267 -32 -51 -65
-15 -126 135 l-45 113 266 617 c146 339 354 824 463 1077 109 253 352 818 540
1255 361 838 625 1452 1000 2325 125 292 304 708 398 925 93 217 364 847 602
1400 238 553 477 1108 531 1235 55 126 99 237 99 246 0 24 -26 42 -52 36 -19
-5 -36 -35 -84 -149 -59 -137 -499 -1161 -1337 -3108 -211 -492 -661 -1538
-1000 -2325 -338 -786 -699 -1626 -802 -1865 -503 -1169 -648 -1507 -656
-1529 -5 -13 -11 -22 -13 -20 -2 2 -34 79 -70 170 l-67 165 222 515 c122 283
310 721 419 974 109 253 359 834 555 1290 197 457 453 1053 570 1325 117 272
296 689 398 925 335 779 988 2296 1077 2505 49 113 172 400 274 638 102 238
186 441 186 450 0 43 -50 56 -74 20 -8 -13 -138 -311 -289 -663 -151 -352
-358 -833 -460 -1070 -102 -236 -365 -848 -585 -1360 -710 -1651 -1162 -2702
-1527 -3550 -196 -456 -454 -1055 -572 -1330 -118 -275 -221 -511 -228 -525
l-13 -25 -10 25 c-5 14 -36 89 -67 168 l-57 143 175 407 c96 224 336 781 532
1237 196 457 446 1037 555 1290 109 253 384 894 613 1425 732 1704 1331 3096
1481 3445 80 186 146 348 146 360 0 39 -45 61 -68 33z m-3957 -7120 l67 -168
-72 -167 c-40 -93 -73 -169 -75 -170 -1 -2 -32 74 -69 167 l-68 170 73 170
c41 93 74 168 75 167 1 -1 32 -77 69 -169z m-194 -456 l65 -168 -68 -154 c-37
-85 -67 -161 -68 -167 -1 -36 -21 2 -77 145 -34 86 -63 162 -65 168 -3 12 134
344 142 344 3 -1 34 -76 71 -168z m379 -5 l62 -157 -47 -113 c-25 -61 -59
-139 -74 -172 l-27 -59 -67 169 -67 170 72 167 c40 92 75 164 79 160 3 -4 34
-78 69 -165z m165 -417 c88 -215 87 -177 10 -358 -37 -86 -71 -161 -75 -165
-4 -5 -37 66 -73 157 l-66 166 72 169 c40 93 74 168 75 166 2 -2 28 -63 57
-135z m-736 -47 l61 -152 -74 -173 c-72 -167 -75 -172 -86 -143 -6 17 -36 94
-67 171 l-56 142 46 108 c89 211 98 229 107 214 4 -8 35 -83 69 -167z m373 13
l65 -164 -71 -166 c-39 -91 -74 -166 -77 -166 -3 0 -35 73 -70 163 l-66 163
71 167 c39 92 74 167 77 167 3 0 35 -74 71 -164z m-573 -456 c33 -85 61 -159
61 -165 0 -12 -130 -317 -139 -328 -4 -4 -37 68 -74 160 l-67 167 72 168 c40
92 75 164 79 160 3 -4 34 -77 68 -162z m381 -9 l61 -155 -72 -168 c-40 -93
-76 -165 -79 -161 -4 5 -35 79 -70 167 l-62 158 72 170 c47 108 76 165 81 157
4 -8 35 -83 69 -168z m379 -5 l59 -148 -71 -169 c-40 -93 -74 -169 -77 -169
-7 1 -131 321 -130 337 0 11 28 77 122 293 18 40 21 43 29 25 4 -11 35 -87 68
-169z m369 21 c34 -89 62 -167 62 -173 0 -5 -25 -68 -56 -140 -31 -71 -62
-145 -71 -164 l-15 -35 -64 160 c-36 88 -66 167 -66 175 -2 17 134 340 142
340 3 0 33 -74 68 -163z m-573 -459 l66 -166 -51 -120 c-28 -66 -61 -129 -72
-139 -19 -17 -21 -17 -47 13 -15 16 -46 78 -70 136 l-43 106 74 170 c40 94 74
170 74 169 1 -1 32 -77 69 -169z m379 -1 l66 -168 -57 -126 c-32 -69 -66 -131
-76 -137 -27 -16 -57 27 -108 156 l-42 108 56 133 c31 72 64 149 72 171 9 21
18 37 19 35 2 -2 33 -80 70 -172z m-1131 -3 l65 -166 -48 -110 c-75 -170 -90
-184 -129 -130 -20 28 -101 223 -101 243 0 16 134 329 141 329 3 0 36 -75 72
-166z m375 7 c34 -87 62 -164 62 -171 0 -15 -87 -216 -107 -247 -33 -51 -66
-15 -126 134 l-45 113 71 165 c40 91 74 165 77 165 3 0 33 -72 68 -159z m1134
-5 l66 -165 -57 -127 c-62 -141 -79 -160 -111 -128 -22 21 -110 224 -110 253
0 19 132 331 140 331 4 0 36 -74 72 -164z"/>
<path d="M3610 1459 c-122 -24 -247 -117 -293 -219 -29 -63 -35 -198 -13 -275
42 -143 125 -205 384 -289 212 -68 279 -115 308 -213 55 -189 -109 -357 -332
-340 -101 8 -181 45 -245 115 l-49 54 -60 -39 c-33 -21 -60 -41 -60 -44 0 -14
120 -118 159 -139 108 -55 245 -77 367 -61 277 39 428 282 333 537 -42 111
-125 168 -356 243 -180 58 -254 97 -297 159 -26 37 -31 54 -34 118 -5 90 13
145 62 196 56 58 117 81 228 86 88 4 101 2 155 -22 32 -15 77 -45 99 -67 l42
-41 51 37 c28 20 51 40 51 45 0 4 -21 27 -48 52 -54 51 -139 94 -213 108 -61
12 -176 11 -239 -1z"/>
<path d="M20 1436 c0 -1 111 -300 246 -662 135 -362 252 -675 258 -694 l13
-35 68 0 68 0 263 695 c145 382 264 696 264 698 0 1 -31 2 -68 2 l-68 0 -26
-72 c-15 -40 -114 -311 -222 -601 -108 -290 -196 -532 -196 -538 0 -43 -45 70
-240 601 l-223 610 -69 0 c-37 0 -68 -2 -68 -4z"/>
<path d="M1787 1433 c-4 -3 -7 -318 -7 -700 l0 -693 445 0 445 0 0 60 0 60
-380 0 -380 0 0 270 0 270 340 0 340 0 0 60 0 60 -340 0 -340 0 0 250 0 250
365 0 365 0 0 60 0 60 -423 0 c-233 0 -427 -3 -430 -7z"/>
<path d="M4798 1434 c-5 -4 -8 -319 -8 -701 l0 -693 65 0 65 0 0 330 0 330
168 0 c198 0 275 11 359 49 112 53 178 143 191 263 24 208 -71 348 -275 404
-43 12 -123 17 -308 21 -137 3 -253 2 -257 -3z m517 -129 c145 -38 221 -149
195 -287 -14 -75 -54 -127 -125 -163 l-59 -30 -203 -3 -203 -4 0 251 0 251
168 0 c119 0 185 -4 227 -15z"/>
<path d="M6270 740 l0 -700 445 0 445 0 0 60 0 60 -380 0 -380 0 0 270 0 270
340 0 340 0 0 60 0 60 -340 0 -340 0 0 250 0 250 365 0 365 0 0 60 0 60 -430
0 -430 0 0 -700z"/>
<path d="M7790 741 l0 -701 65 0 65 0 0 330 0 330 123 0 122 -1 194 -329 194
-330 75 0 74 0 -14 23 c-38 59 -388 637 -388 641 0 3 24 9 53 15 121 26 215
91 265 186 25 45 27 60 27 160 0 132 -21 190 -92 256 -98 90 -181 109 -505
116 l-258 6 0 -702z m501 569 c89 -16 159 -58 194 -114 27 -44 30 -58 30 -131
0 -72 -3 -86 -28 -123 -63 -96 -148 -122 -394 -122 l-173 0 0 250 0 250 159 0
c87 0 183 -4 212 -10z"/>
</g>
</svg>
